<svg width="85" height="24" viewBox="0 0 85 24" fill="none" xmlns="http://www.w3.org/2000/svg">
<g clip-path="url(#clip0_493_608)">
<path d="M17.0233 21.2018V23.7831C16.584 23.9283 15.9156 24.0001 15.0164 24.0001C13.4488 24.0001 11.9811 23.6123 10.6115 22.835C9.24203 22.0577 8.04651 20.9644 7.02153 19.555C5.60034 21.3163 4.45134 22.7154 3.57278 23.7523H0C2.42377 21.0378 4.28424 18.8307 5.57967 17.1309C4.24117 14.3754 3.57278 11.1723 3.57278 7.52507C3.57278 4.91306 4.00689 3.02708 4.87339 1.86713C5.7416 0.705476 6.90784 0.124649 8.37037 0.124649C9.8329 0.124649 11.0508 0.664476 11.8966 1.74071C12.7425 2.81866 13.1662 4.38348 13.1662 6.43516C13.1662 8.13494 12.8734 9.751 12.2877 11.2851C11.702 12.8191 10.584 14.7256 8.93368 17.0062C9.76916 18.3951 10.7614 19.4628 11.9121 20.2076C13.0612 20.9541 14.2636 21.3265 15.5177 21.3265C15.9776 21.3265 16.4789 21.2855 17.0233 21.2018ZM7.68131 14.3002C8.41344 13.2018 8.95607 12.2281 9.31094 11.3773C9.66581 10.5283 9.89664 9.73563 10 8.99934C10.1051 8.26306 10.1568 7.3884 10.1568 6.37196C10.1568 5.0258 9.99483 4.09306 9.67097 3.57374C9.34711 3.05612 8.91301 2.79645 8.37037 2.79645C7.82773 2.79645 7.37295 3.16887 7.06977 3.9154C6.76658 4.66193 6.61499 5.95684 6.61499 7.80182C6.61499 10.1234 6.96985 12.2896 7.68131 14.2985V14.3002Z" fill="#121712"/>
<path d="M22.286 1.20772L22.2274 0.247648C22.3325 0.247648 22.4462 0.242523 22.5719 0.232273C22.6977 0.222023 22.8114 0.216898 22.9165 0.216898C24.1085 0.216898 25.2627 0.382604 26.3807 0.714018C27.4987 1.04543 28.5805 1.48105 29.6245 2.01917L29.5624 2.08067C30.3979 2.641 31.1249 3.2987 31.7416 4.05548C32.3583 4.81226 32.8699 5.63055 33.2782 6.51204C33.6865 7.39353 33.9931 8.31431 34.2033 9.27951C34.4117 10.243 34.5168 11.2116 34.5168 12.1871C34.5168 13.6596 34.3135 15.0587 33.9053 16.3844C33.497 17.7118 32.8872 18.8819 32.0706 19.8967C31.2558 20.9131 30.2463 21.716 29.0457 22.3054C27.8432 22.8965 26.4376 23.192 24.8286 23.192C23.2196 23.192 21.8811 22.8862 20.6908 22.2747C19.4987 21.6631 18.5013 20.8448 17.6968 19.8181C16.8923 18.7914 16.286 17.6161 15.8794 16.2887C15.4711 14.9631 15.2679 13.5947 15.2679 12.1854C15.2679 11.0254 15.404 9.86375 15.6761 8.70381C15.9483 7.54386 16.3704 6.46591 16.9457 5.46997C17.5194 4.47573 18.2515 3.60449 19.1404 2.85795C20.0293 2.11142 21.0784 1.58355 22.2911 1.27264L22.2877 1.20601M23.5848 4.14602C23.0198 4.26048 22.5047 4.44839 22.0379 4.70977C21.2024 5.17614 20.5116 5.79284 19.969 6.55987C19.4246 7.3269 19.0284 8.19814 18.7769 9.17188C18.5254 10.1456 18.4014 11.1416 18.4014 12.1563C18.4014 13.1711 18.5271 14.0952 18.7769 15.0468C19.0284 16 19.4143 16.8491 19.9363 17.5956C20.4582 18.3421 21.1214 18.9434 21.9276 19.3979C22.7321 19.854 23.6882 20.0812 24.7959 20.0812C25.9035 20.0812 26.9371 19.8642 27.7743 19.4286C28.6098 18.993 29.2954 18.4087 29.8277 17.6725C30.36 16.9379 30.7528 16.0923 31.0043 15.139C31.2558 14.1858 31.3798 13.2018 31.3798 12.1854C31.3798 11.2321 31.2593 10.2686 31.0198 9.29488C30.7786 8.32114 30.3979 7.44478 29.876 6.66749C29.354 5.89021 28.6942 5.25301 27.9018 4.75589C27.1077 4.25877 26.1464 4.00936 25.0181 4.00936C24.5099 4.00936 24.0327 4.05548 23.5866 4.14602" fill="#121712"/>
<path d="M49.6572 2.08238C50.4927 2.64271 51.2196 3.30041 51.8363 4.05719C52.4531 4.81397 52.9647 5.63226 53.3729 6.51375C53.7812 7.39524 54.0879 8.31602 54.298 9.28122C54.5065 10.2447 54.6115 11.2133 54.6115 12.1888C54.6115 13.6613 54.4083 15.0604 54 16.3861C53.5917 17.7135 52.9819 18.8837 52.1654 19.8984C51.3506 20.9148 50.3411 21.7177 49.1404 22.3071C47.938 22.8982 46.5323 23.1937 44.9233 23.1937C43.3144 23.1937 41.9759 22.8879 40.7855 22.2764C39.5935 21.6648 38.596 20.8465 37.7916 19.8198C36.9871 18.7931 36.3807 17.6178 35.9742 16.2904C35.5659 14.9648 35.3626 13.5964 35.3626 12.1871C35.3626 11.0271 35.4987 9.86546 35.7709 8.70551C36.0431 7.54557 36.4651 6.46762 37.0405 5.47167C37.6141 4.47743 38.3463 3.60619 39.2351 2.85966C40.124 2.11313 41.1731 1.58526 42.3859 1.27434L42.3239 0.247648C42.4289 0.247648 42.5426 0.242523 42.6684 0.232273C42.7941 0.222023 42.9078 0.216898 43.0129 0.216898C44.205 0.216898 45.3592 0.382604 46.4772 0.714018C47.5952 1.04543 48.677 1.48105 49.7209 2.01917L49.6589 2.08067L49.6572 2.08238ZM51.4763 12.1871C51.4763 11.2338 51.3557 10.2703 51.1163 9.29659C50.8751 8.32285 50.4944 7.44649 49.9724 6.6692C49.4505 5.89192 48.7907 5.25472 47.9983 4.7576C47.2041 4.26048 46.2429 4.01107 45.1146 4.01107C43.9862 4.01107 42.9716 4.2434 42.1361 4.70977C41.3006 5.17614 40.6098 5.79284 40.0672 6.55987C39.5228 7.3269 39.1266 8.19814 38.8751 9.17188C38.6236 10.1456 38.4996 11.1416 38.4996 12.1563C38.4996 13.1711 38.6253 14.0952 38.8751 15.0468C39.1266 16 39.5125 16.8491 40.0345 17.5956C40.5564 18.3421 41.2196 18.9434 42.0258 19.3979C42.8303 19.854 43.7864 20.0812 44.8941 20.0812C46.0017 20.0812 47.0353 19.8642 47.8725 19.4286C48.708 18.993 49.3936 18.4087 49.9259 17.6725C50.4582 16.9379 50.851 16.0923 51.1025 15.139C51.354 14.1858 51.478 13.2018 51.478 12.1854L51.4763 12.1871Z" fill="#121712"/>
<path d="M53.4505 0.435563C54.5581 0.331356 55.6606 0.233982 56.758 0.140025C57.8553 0.0460673 58.9578 -5.72205e-05 60.0655 -5.72205e-05C61.2575 -5.72205e-05 62.4375 0.14515 63.6072 0.435563C64.7769 0.725977 65.8329 1.1821 66.7735 1.80392C67.714 2.42575 68.472 3.21841 69.0456 4.1819C69.6193 5.14539 69.907 6.30192 69.907 7.64807C69.907 9.38884 69.6193 10.7623 69.0456 11.7668C68.4703 12.773 67.6916 13.5281 66.7097 14.0355C65.7278 14.5428 64.5891 14.8708 63.292 15.0143C61.9966 15.1595 60.6374 15.2432 59.2162 15.2637L59.4987 23.6584L56.3635 23.8446L56.081 16.3827H56.05C56.0913 14.4967 56.0603 12.6363 55.9552 10.8016C55.8501 8.96689 55.7571 7.10824 55.6727 5.22055L58.8079 5.0651L59.1214 12.0606H60.3755C61.149 12.0606 61.9173 12.0094 62.6804 11.9052C63.4436 11.801 64.1275 11.5943 64.7338 11.2834C65.3402 10.9724 65.8312 10.5317 66.2067 9.96283C66.5823 9.39226 66.7717 8.64231 66.7717 7.70957C66.7717 6.77683 66.5633 6.07813 66.1447 5.48705C65.7261 4.89597 65.1886 4.42448 64.5306 4.07257C63.8725 3.72065 63.1507 3.47124 62.3669 3.32603C61.5831 3.18082 60.8251 3.10908 60.0947 3.10908C59.0284 3.10908 57.9724 3.1552 56.9285 3.24916C55.8829 3.34311 54.8286 3.44049 53.7623 3.5447L53.4487 0.435563H53.4505Z" fill="#121712"/>
<path d="M70.944 5.41018C71.2989 4.74735 71.702 4.13577 72.1516 3.57545C72.6012 3.01512 73.1077 2.52996 73.6727 2.11484C74.2377 1.69972 74.8579 1.37343 75.5383 1.13597C76.2171 0.898517 76.944 0.778934 77.7175 0.778934C79.2231 0.778934 80.5392 1.1411 81.6675 1.86713C82.7959 2.59316 83.6003 3.69161 84.081 5.16247C84.3325 5.9295 84.4737 6.71704 84.5047 7.52507C84.5357 8.3331 84.5616 9.14114 84.584 9.94917C84.6047 11.2543 84.6305 12.5612 84.6632 13.8663C84.6942 15.1715 84.7097 16.4783 84.7097 17.7835V23.7524H81.5745V21.9501C80.8631 22.4899 80.0792 22.8931 79.2231 23.163C78.3652 23.4329 77.4884 23.5679 76.5892 23.5679C75.5435 23.5679 74.5771 23.3816 73.6899 23.0075C72.801 22.6351 72.0327 22.1209 71.385 21.4683C70.7373 20.8158 70.2291 20.0436 69.8639 19.1519C69.4987 18.2618 69.3161 17.3069 69.3161 16.2921C69.3161 15.1322 69.5142 14.0594 69.9121 13.0737C70.3084 12.0897 70.863 11.2338 71.5745 10.5095C72.2842 9.78346 73.1318 9.21972 74.1137 8.81485C75.0956 8.40998 76.1826 8.20839 77.3747 8.20839C78.1068 8.20839 78.8217 8.32798 79.5228 8.56543C80.2222 8.8046 80.8751 9.13088 81.4815 9.5443V9.38884C81.4815 8.72601 81.4453 8.06831 81.3712 7.41403C81.2972 6.76145 81.1352 6.17038 80.8854 5.64251C80.6339 5.11464 80.2636 4.68927 79.7726 4.3681C79.2817 4.04694 78.6081 3.88636 77.7502 3.88636C77.2696 3.88636 76.8252 3.97007 76.4186 4.13577C76.0103 4.30148 75.6348 4.52356 75.2903 4.80372C74.9457 5.08389 74.6374 5.41018 74.3652 5.78259C74.093 6.155 73.8639 6.53937 73.6761 6.93228L70.9492 5.40847L70.944 5.41018ZM81.5401 14.6112C81.373 14.196 81.1525 13.7929 80.882 13.3983C80.6098 13.0053 80.2911 12.6517 79.9259 12.3408C79.5607 12.0299 79.1628 11.7805 78.7339 11.5943C78.3049 11.4081 77.8398 11.3141 77.3385 11.3141C75.8536 11.3141 74.6684 11.7702 73.7795 12.6825C72.8906 13.5947 72.4479 14.7871 72.4479 16.258C72.4479 16.8593 72.5461 17.4128 72.7459 17.9219C72.944 18.4292 73.2265 18.87 73.5917 19.2424C73.9569 19.6148 74.391 19.9104 74.8923 20.129C75.3936 20.346 75.9587 20.4553 76.5857 20.4553C77.7347 20.4553 78.6391 20.2025 79.2972 19.6934C79.9552 19.186 80.5564 18.4549 81.0991 17.5016C81.2041 17.3154 81.3075 17.119 81.4126 16.9106C81.5177 16.7038 81.5693 16.4852 81.5693 16.258L81.5383 14.6112H81.5401Z" fill="#121712"/>
</g>
<defs>
<clipPath id="clip0_493_608">
<rect width="84.7063" height="24.0001" fill="white"/>
</clipPath>
</defs>
</svg>
