<svg width="47" height="45" viewBox="0 0 47 45" fill="none" xmlns="http://www.w3.org/2000/svg">
<path d="M34.6543 37.6175C33.0707 37.4754 31.6261 36.9845 30.3205 36.1448C29.0408 35.3074 28.051 34.1845 27.3511 32.7761C26.6513 31.3678 26.3922 29.7374 26.5739 27.8848C26.7484 26.1064 27.2515 24.5817 28.0833 23.3108C28.9411 22.0422 30.0553 21.0956 31.426 20.471C32.8227 19.8488 34.4297 19.6191 36.2469 19.7822C37.3372 19.88 38.3056 20.1537 39.1519 20.6034C40.0266 21.0307 40.737 21.5305 41.2832 22.1028C41.8578 22.6527 42.2259 23.1716 42.3876 23.6596L42.7453 20.8136L46.7562 21.1735L45.0878 38.1797L41.1159 37.8234L41.3324 34.8153C41.0195 35.3354 40.5261 35.8269 39.8521 36.2897C39.2042 36.7548 38.4349 37.1219 37.5442 37.3908C36.656 37.6351 35.6927 37.7106 34.6543 37.6175ZM35.6824 34.3458C36.6429 34.432 37.5332 34.3 38.3532 33.95C39.2016 33.5776 39.8982 33.0171 40.443 32.2686C41.0138 31.5225 41.3525 30.606 41.4592 29.5192L41.4846 29.2598C41.5936 28.1483 41.4415 27.1629 41.0282 26.3035C40.6433 25.4218 40.0703 24.7225 39.3092 24.2057C38.5764 23.6665 37.7297 23.3538 36.7692 23.2677C35.0298 23.1116 33.6667 23.5251 32.6799 24.508C31.719 25.4933 31.1622 26.764 31.0095 28.3201C30.8545 29.9009 31.1532 31.2608 31.9057 32.3998C32.6841 33.5411 33.943 34.1898 35.6824 34.3458Z" fill="#4741A6"/>
<path d="M10.2625 42.9094L12.4282 24.585L16.9371 25.0723L16.5125 28.6653C17.0993 27.5158 17.9239 26.6211 18.9861 25.9811C20.0793 25.3176 21.28 25.0565 22.5881 25.1979C23.4788 25.2941 24.0817 25.4401 24.3968 25.6359L23.2562 29.9198C23.0246 29.733 22.4913 29.5945 21.6563 29.5043C20.9605 29.4291 20.1917 29.4943 19.35 29.6998C18.5082 29.9053 17.7511 30.3491 17.0785 31.0312C16.4369 31.6896 16.0391 32.6709 15.8849 33.975L14.7714 43.3967L10.2625 42.9094Z" fill="#4741A6"/>
<path d="M31.4736 17.5684C29.2837 17.5684 27.5012 17.1666 26.1262 16.3631C24.7511 15.5352 23.7453 14.4516 23.1087 13.1124C22.4721 11.7731 22.1538 10.3487 22.1538 8.83899C22.1538 7.01275 22.5358 5.44219 23.2997 4.1273C24.0891 2.81241 25.1713 1.80189 26.5463 1.09574C27.9214 0.365247 29.4747 0 31.2062 0C33.9818 0 36.0062 0.742669 37.2794 2.22801C38.5526 3.689 39.1892 5.66133 39.1892 8.14502C39.1892 8.80246 39.151 9.48426 39.0746 10.1904H26.4699C26.75 11.7001 27.3103 12.7837 28.1506 13.4411C29.0163 14.0742 30.1622 14.3907 31.5882 14.3907C32.9632 14.3907 34.0455 14.269 34.8348 14.0255C35.6242 13.782 36.2736 13.5385 36.7828 13.295L38.0433 16.1074C37.534 16.424 36.7446 16.7527 35.6752 17.0936C34.6057 17.4101 33.2052 17.5684 31.4736 17.5684ZM26.4699 7.45105H35.1786C35.2041 5.86831 34.8348 4.78474 34.0709 4.20034C33.307 3.61595 32.3139 3.32375 31.0917 3.32375C29.8185 3.32375 28.7744 3.65247 27.9596 4.30992C27.1702 4.94301 26.6737 5.99006 26.4699 7.45105Z" fill="#4741A6"/>
<path d="M5.30244 30.1372L0.0891167 4.98609L3.98568 4.24753L4.61693 7.29289C4.98843 6.20471 5.61692 5.22917 6.50239 4.36628C7.41284 3.49866 8.69235 2.90861 10.3409 2.59615C11.8895 2.30262 13.3402 2.35037 14.6928 2.73941C16.0455 3.12844 17.2027 3.88963 18.1645 5.02298C19.1512 6.1516 19.8451 7.68326 20.2461 9.61796C20.6125 11.3855 20.5572 12.9971 20.0801 14.4528C19.5981 15.8846 18.807 17.0772 17.7066 18.0304C16.6013 18.9598 15.2743 19.5713 13.7256 19.8648C12.2519 20.1441 10.9386 20.1324 9.78553 19.8297C8.63248 19.5269 7.66463 18.9905 6.88197 18.2203L9.19901 29.3986L5.30244 30.1372ZM12.1132 16.782C13.8117 16.4601 14.9666 15.7075 15.578 14.5242C16.2144 13.3361 16.3791 12.0017 16.0721 10.5208C15.7503 8.96827 15.0608 7.7709 14.0036 6.92869C12.9714 6.08174 11.606 5.81924 9.90754 6.14117C9.00833 6.31161 8.21365 6.67323 7.5235 7.22604C6.83334 7.77885 6.33019 8.4824 6.01404 9.33667C5.69789 10.1909 5.65121 11.1555 5.874 12.2303L5.92598 12.4811C6.14382 13.5321 6.5742 14.4186 7.21711 15.1408C7.85508 15.839 8.60577 16.3297 9.46921 16.6129C10.3326 16.8961 11.214 16.9524 12.1132 16.782Z" fill="#4741A6"/>
</svg>
