<svg width="134" height="128" viewBox="0 0 134 128" fill="none" xmlns="http://www.w3.org/2000/svg">
<path d="M99.2243 108.587C94.69 108.178 90.5538 106.768 86.8154 104.355C83.1514 101.949 80.3174 98.7225 78.3135 94.6759C76.3095 90.6293 75.5678 85.9445 76.0881 80.6216C76.5877 75.5117 78.0283 71.1308 80.4099 67.479C82.8659 63.8339 86.0562 61.114 89.9809 59.3194C93.98 57.5315 98.5811 56.8718 103.784 57.3402C106.906 57.6213 109.679 58.4078 112.102 59.6999C114.606 60.9277 116.641 62.3638 118.205 64.0081C119.85 65.5881 120.904 67.0792 121.367 68.4812L122.391 60.304L133.875 61.3378L129.098 110.202L117.725 109.178L118.345 100.535C117.449 102.029 116.037 103.442 114.107 104.771C112.252 106.108 110.049 107.163 107.499 107.935C104.956 108.637 102.198 108.854 99.2243 108.587ZM102.168 99.186C104.918 99.4336 107.467 99.0545 109.815 98.0487C112.244 96.9787 114.239 95.3683 115.799 93.2177C117.433 91.0737 118.403 88.4404 118.708 85.3176L118.781 84.5724C119.093 81.3786 118.658 78.5472 117.474 76.078C116.372 73.5445 114.732 71.5353 112.552 70.0503C110.454 68.5011 108.03 67.6027 105.28 67.3552C100.3 66.9068 96.3966 68.0948 93.571 70.9191C90.8197 73.75 89.2255 77.4011 88.7884 81.8723C88.3443 86.4145 89.1996 90.3219 91.3542 93.5946C93.5831 96.8739 97.1877 98.7377 102.168 99.186Z" fill="#9BBBFC"/>
<path d="M29.3838 123.793L35.5849 71.1412L48.495 72.5413L47.2791 82.8652C48.9595 79.5622 51.3204 76.9913 54.3618 75.1526C57.4919 73.246 60.9297 72.4958 64.6752 72.902C67.2254 73.1786 68.9516 73.5982 69.8538 74.1607L66.5881 86.4696C65.925 85.9329 64.398 85.535 62.0072 85.2757C60.0149 85.0596 57.8137 85.2469 55.4036 85.8374C52.9934 86.428 50.8255 87.7031 48.8998 89.6629C47.0628 91.5548 45.9236 94.3743 45.4823 98.1215L42.2939 125.193L29.3838 123.793Z" fill="#9BBBFC"/>
<path d="M90.1165 50.9793C83.8463 50.9793 78.7426 49.8249 74.8055 47.5161C70.8684 45.1373 67.9885 42.0239 66.1657 38.1758C64.343 34.3278 63.4316 30.2349 63.4316 25.8971C63.4316 20.6498 64.5253 16.137 66.7126 12.359C68.9728 8.58089 72.0714 5.67737 76.0085 3.6484C79.9457 1.54947 84.3931 0.5 89.351 0.5C97.2981 0.5 103.094 2.63391 106.74 6.90174C110.385 11.0996 112.208 16.7667 112.208 23.9031C112.208 25.7921 112.099 27.7511 111.88 29.7801H75.7898C76.5918 34.1179 78.1958 37.2313 80.6018 39.1204C83.0808 40.9394 86.3617 41.849 90.4446 41.849C94.3817 41.849 97.4804 41.4992 99.7406 40.7995C102.001 40.0999 103.86 39.4002 105.318 38.7006L108.927 46.7815C107.469 47.691 105.209 48.6355 102.147 49.615C99.0844 50.5246 95.0744 50.9793 90.1165 50.9793ZM75.7898 21.9091H100.725C100.798 17.3614 99.7406 14.248 97.5533 12.5689C95.366 10.8897 92.5225 10.0501 89.0229 10.0501C85.3774 10.0501 82.3881 10.9947 80.055 12.8837C77.7948 14.7028 76.3731 17.7112 75.7898 21.9091Z" fill="#9BBBFC"/>
<path d="M15.1822 87.0928L0.255163 14.8261L11.412 12.7041L13.2194 21.4543C14.2831 18.3276 16.0826 15.5246 18.618 13.0453C21.2248 10.5523 24.8883 8.85694 29.6085 7.95914C34.0427 7.11574 38.1962 7.25295 42.0692 8.37076C45.9421 9.48857 49.2555 11.6757 52.0093 14.9322C54.8347 18.175 56.8215 22.5759 57.9697 28.1349C59.0187 33.2135 58.8603 37.8441 57.4944 42.0268C56.1143 46.1409 53.849 49.5674 50.6983 52.3065C47.5335 54.9769 43.7341 56.7338 39.2999 57.5772C35.0804 58.3798 31.3198 58.3461 28.0184 57.4762C24.7169 56.6063 21.9457 55.065 19.7048 52.8522L26.339 84.9707L15.1822 87.0928ZM34.683 48.7194C39.5462 47.7944 42.8531 45.6319 44.6037 42.2319C46.4257 38.8184 46.8973 34.9841 46.0184 30.7291C45.097 26.2682 43.1228 22.8278 40.0958 20.4078C37.1403 17.9743 33.231 17.22 28.3677 18.1451C25.7931 18.6348 23.5177 19.6738 21.5416 21.2622C19.5656 22.8506 18.1249 24.8721 17.2197 27.3267C16.3145 29.7813 16.1808 32.5528 16.8187 35.6411L16.9676 36.3617C17.5913 39.3814 18.8236 41.9287 20.6644 44.0036C22.491 46.0099 24.6405 47.4199 27.1127 48.2335C29.5849 49.0471 32.1084 49.2091 34.683 48.7194Z" fill="#9BBBFC"/>
</svg>
