<svg width="67" height="68" viewBox="0 0 67 68" fill="none" xmlns="http://www.w3.org/2000/svg">
<path d="M49.6121 57.8728C47.345 57.6542 45.2769 56.899 43.4077 55.6071C41.5757 54.3188 40.1587 52.5913 39.1567 50.4246C38.1548 48.2579 37.7839 45.7495 38.0441 42.8995C38.2939 40.1634 39.0141 37.8178 40.205 35.8625C41.4329 33.9107 43.0281 32.4544 44.9905 31.4936C46.99 30.5363 49.2905 30.183 51.8921 30.4338C53.4531 30.5843 54.8394 31.0055 56.051 31.6973C57.3032 32.3547 58.3203 33.1236 59.1023 34.004C59.9248 34.85 60.4518 35.6484 60.6833 36.3991L61.1954 32.0207L66.9375 32.5743L64.549 58.7377L58.8627 58.1896L59.1727 53.5617C58.7247 54.3619 58.0183 55.118 57.0535 55.83C56.1258 56.5457 55.0245 57.1103 53.7494 57.5241C52.4779 57.8999 51.0988 58.0161 49.6121 57.8728ZM51.0839 52.8394C52.4591 52.972 53.7336 52.769 54.9076 52.2305C56.1221 51.6576 57.1194 50.7953 57.8994 49.6438C58.7166 48.4959 59.2015 47.0859 59.3541 45.4138L59.3906 45.0148C59.5467 43.3048 59.3289 41.7887 58.7372 40.4666C58.1862 39.1101 57.3658 38.0343 56.2761 37.2393C55.2271 36.4098 54.015 35.9287 52.6399 35.7962C50.1498 35.5561 48.1983 36.1922 46.7855 37.7044C45.4099 39.2202 44.6128 41.1751 44.3942 43.5691C44.1722 46.0012 44.5998 48.0933 45.6771 49.8456C46.7916 51.6015 48.5938 52.5994 51.0839 52.8394Z" fill="#F9CE69"/>
<path d="M14.6919 66.0148L17.7925 37.8235L24.2475 38.5731L23.6396 44.1009C24.4797 42.3323 25.6602 40.9558 27.1809 39.9713C28.7459 38.9505 30.4649 38.5488 32.3376 38.7663C33.6127 38.9144 34.4758 39.139 34.9269 39.4402L33.2941 46.0308C32.9625 45.7435 32.199 45.5304 31.0036 45.3916C30.0075 45.2759 28.9069 45.3761 27.7018 45.6923C26.4967 46.0085 25.4128 46.6913 24.4499 47.7406C23.5314 48.7536 22.9618 50.2632 22.7411 52.2696L21.1469 66.7645L14.6919 66.0148Z" fill="#F9CE69"/>
<path d="M45.0583 27.0283C41.9232 27.0283 39.3713 26.4102 37.4028 25.174C35.4342 23.9003 33.9942 22.2333 33.0829 20.1729C32.1715 18.1125 31.7158 15.921 31.7158 13.5984C31.7158 10.7888 32.2626 8.37259 33.3563 6.34969C34.4864 4.32678 36.0357 2.77213 38.0043 1.68576C39.9728 0.561919 42.1966 0 44.6755 0C48.6491 0 51.5472 1.14257 53.37 3.4277C55.1927 5.67538 56.1041 8.70975 56.1041 12.5308C56.1041 13.5422 56.0494 14.5912 55.94 15.6775H37.8949C38.2959 18.0001 39.0979 19.6672 40.3009 20.6786C41.5404 21.6526 43.1808 22.1396 45.2223 22.1396C47.1909 22.1396 48.7402 21.9523 49.8703 21.5777C51.0004 21.2031 51.93 20.8285 52.6591 20.4538L54.4636 24.7806C53.7345 25.2676 52.6044 25.7733 51.0733 26.2978C49.5422 26.7848 47.5372 27.0283 45.0583 27.0283ZM37.8949 11.4631H50.3624C50.3989 9.02817 49.8703 7.36114 48.7767 6.46207C47.683 5.563 46.2613 5.11346 44.5114 5.11346C42.6887 5.11346 41.1941 5.61919 40.0275 6.63064C38.8974 7.60464 38.1865 9.21547 37.8949 11.4631Z" fill="#F9CE69"/>
<path d="M7.5911 46.3647L0.127582 7.67071L5.706 6.53448L6.6097 11.2196C7.14156 9.54552 8.04132 8.04469 9.30898 6.71717C10.6124 5.38236 12.4442 4.4746 14.8043 3.99389C17.0213 3.54231 19.0981 3.61577 21.0346 4.21428C22.9711 4.8128 24.6278 5.98386 26.0047 7.72748C27.4173 9.46382 28.4107 11.8202 28.9848 14.7967C29.5094 17.5159 29.4301 19.9953 28.7472 22.2349C28.0572 24.4377 26.9245 26.2724 25.3492 27.7389C23.7668 29.1687 21.867 30.1094 19.65 30.561C17.5402 30.9908 15.6599 30.9727 14.0092 30.507C12.3585 30.0412 10.9729 29.2159 9.8524 28.0311L13.1695 45.2284L7.5911 46.3647ZM17.3415 25.8183C19.7731 25.323 21.4266 24.1651 22.3018 22.3447C23.2129 20.5169 23.4487 18.4639 23.0092 16.1857C22.5485 13.7971 21.5614 11.955 20.0479 10.6593C18.5702 9.35634 16.6155 8.95248 14.1839 9.44777C12.8965 9.70997 11.7589 10.2663 10.7708 11.1168C9.78278 11.9673 9.06245 13.0497 8.60984 14.3639C8.15723 15.6782 8.0904 17.1621 8.40935 18.8157L8.48378 19.2015C8.79564 20.8184 9.41178 22.1823 10.3322 23.2933C11.2455 24.3675 12.3202 25.1225 13.5563 25.5581C14.7925 25.9938 16.0542 26.0805 17.3415 25.8183Z" fill="#F9CE69"/>
</svg>
