<svg width="122" height="123" viewBox="0 0 122 123" fill="none" xmlns="http://www.w3.org/2000/svg">
<path d="M90.098 104.682C86.0037 104.286 82.2687 102.92 78.893 100.584C75.5845 98.2532 73.0254 95.1284 71.2159 91.2093C69.4064 87.2901 68.7366 82.7529 69.2064 77.5977C69.6575 72.6486 70.9584 68.4057 73.1089 64.869C75.3266 61.3386 78.2074 58.7045 81.7514 56.9664C85.3625 55.2348 89.5172 54.5959 94.2156 55.0495C97.0347 55.3217 99.5383 56.0835 101.726 57.3349C103.988 58.524 105.825 59.9149 107.237 61.5074C108.722 63.0377 109.674 64.4817 110.092 65.8396L111.017 57.9199L121.387 58.9212L117.074 106.246L106.804 105.255L107.364 96.8838C106.555 98.3312 105.279 99.6989 103.537 100.987C101.862 102.281 99.8725 103.303 97.5698 104.051C95.2734 104.731 92.7828 104.941 90.098 104.682ZM92.7561 95.5773C95.2395 95.8171 97.5413 95.45 99.6614 94.4759C101.855 93.4395 103.656 91.8799 105.065 89.797C106.54 87.7205 107.416 85.1701 107.692 82.1457L107.758 81.424C108.039 78.3308 107.646 75.5886 106.578 73.1971C105.583 70.7434 104.101 68.7975 102.133 67.3593C100.238 65.8589 98.0494 64.9888 95.566 64.749C91.069 64.3148 87.5447 65.4654 84.9932 68.2007C82.5088 70.9425 81.0693 74.4786 80.6746 78.809C80.2736 83.2081 81.0459 86.9925 82.9915 90.162C85.0041 93.338 88.259 95.1431 92.7561 95.5773Z" fill="#FCFCFC"/>
<path d="M27.0333 119.409L32.6329 68.4162L44.2905 69.7722L43.1926 79.7709C44.7099 76.5719 46.8418 74.082 49.5881 72.3012C52.4145 70.4547 55.5188 69.7282 58.901 70.1216C61.2037 70.3895 62.7625 70.7958 63.5772 71.3406L60.6283 83.2618C60.0295 82.7421 58.6506 82.3567 56.4918 82.1055C54.6928 81.8963 52.7051 82.0776 50.5288 82.6496C48.3525 83.2215 46.3949 84.4565 44.656 86.3545C42.9972 88.1868 41.9685 90.9176 41.57 94.5467L38.6909 120.765L27.0333 119.409Z" fill="#FCFCFC"/>
<path d="M81.8739 48.8894C76.212 48.8894 71.6034 47.7714 68.0483 45.5353C64.4931 43.2314 61.8926 40.216 60.2467 36.4892C58.6008 32.7624 57.7778 28.7983 57.7778 24.5972C57.7778 19.5151 58.7654 15.1445 60.7405 11.4855C62.7814 7.82638 65.5794 5.0143 69.1346 3.04924C72.6897 1.01641 76.7057 0 81.1826 0C88.3588 0 93.5927 2.0667 96.8846 6.20011C100.176 10.2658 101.822 15.7544 101.822 22.666C101.822 24.4955 101.724 26.3928 101.526 28.3579H68.9371C69.6613 32.5591 71.1097 35.5744 73.2823 37.404C75.5207 39.1658 78.4833 40.0466 82.1702 40.0466C85.7253 40.0466 88.5233 39.7078 90.5643 39.0302C92.6052 38.3526 94.284 37.675 95.6007 36.9974L98.8596 44.8238C97.5429 45.7047 95.502 46.6194 92.7369 47.5681C89.9717 48.449 86.3508 48.8894 81.8739 48.8894ZM68.9371 20.7348H91.4531C91.5189 16.3304 90.5643 13.315 88.5892 11.6887C86.6141 10.0625 84.0465 9.24935 80.8864 9.24935C77.5945 9.24935 74.8953 10.1641 72.7885 11.9937C70.7476 13.7554 69.4638 16.6692 68.9371 20.7348Z" fill="#FCFCFC"/>
<path d="M14.2093 83.8656L0.730408 13.8751L10.8049 11.8199L12.4369 20.2945C13.3974 17.2663 15.0224 14.5516 17.3117 12.1503C19.6657 9.73591 22.9738 8.09393 27.2361 7.2244C31.24 6.40757 34.9906 6.54046 38.4878 7.62306C41.9851 8.70566 44.977 10.8239 47.4637 13.9778C50.0149 17.1185 51.8089 21.3808 52.8458 26.7647C53.793 31.6833 53.6499 36.1681 52.4166 40.2191C51.1704 44.2036 49.1248 47.5222 46.2798 50.175C43.4221 52.7613 39.9912 54.4628 35.9872 55.2797C32.177 56.057 28.7813 56.0244 25.8002 55.1819C22.819 54.3394 20.3167 52.8466 18.2931 50.7035L24.2838 81.8104L14.2093 83.8656ZM31.8182 46.7009C36.2097 45.805 39.1957 43.7106 40.7765 40.4177C42.4218 37.1117 42.8476 33.3982 42.054 29.2772C41.2219 24.9568 39.4392 21.6247 36.7059 19.281C34.0372 16.9241 30.5071 16.1936 26.1156 17.0895C23.7908 17.5638 21.7361 18.5701 19.9518 20.1085C18.1674 21.6469 16.8665 23.6047 16.0491 25.982C15.2317 28.3592 15.111 31.0434 15.687 34.0345L15.8214 34.7324C16.3847 37.657 17.4974 40.124 19.1596 42.1336C20.8091 44.0767 22.75 45.4423 24.9823 46.2303C27.2147 47.0183 29.4934 47.1752 31.8182 46.7009Z" fill="#FCFCFC"/>
</svg>
